max v2;
#N vpatcher 783 164 1108 396;
#P button 45 110 15 0;
#P outlet 33 178 15 0;
#P window setfont "Sans Serif" 9.;
#P window linecount 1;
#P newex 33 137 209 196617 expr sqrt($f1*$f1 + $f2*$f2 + $f3*$f3);
#P inlet 231 51 15 0;
#P inlet 132 51 15 0;
#P inlet 33 51 15 0;
#P comment 30 26 263 196617 Calculates total acceleration from 3 axes of acceleration;
#P window linecount 2;
#P comment 51 82 83 196617 Convert all inlets to hot inlets;
#P connect 7 0 5 0;
#P connect 2 0 5 0;
#P connect 5 0 6 0;
#P fasten 4 0 7 0 236 78 50 78;
#P fasten 3 0 7 0 137 78 50 78;
#P connect 3 0 5 1;
#P connect 4 0 5 2;
#P pop;
